HIERARCHY
ROOT Hips
{
	OFFSET 0.000000 0.000000 0.000000 
	CHANNELS 6 Xposition Yposition Zposition Yrotation Zrotation Xrotation 
	JOINT Lumbar
	{
		OFFSET 0.000000 0.000000 0.000000 
		CHANNELS 3 Zrotation Xrotation Yrotation
		JOINT Neck
		{
			OFFSET 0.000000 0.445665 0.000000 
			CHANNELS 3 Zrotation Xrotation Yrotation
			End Site
			{
				OFFSET 0.000000 0.227535 0.000000 
			}
		}
		JOINT RightShoulder
		{
			OFFSET 0.019635 0.377685 0.194865 
			CHANNELS 3 Zrotation Xrotation Yrotation
			JOINT RightElbow
			{
				OFFSET 0.000000 -0.243375 0.000000 
				CHANNELS 2 Zrotation Yrotation
				JOINT RightWrist
				{
					OFFSET 0.000000 -0.264825 0.000000 
					CHANNELS 2 Zrotation Xrotation
					End Site
					{
						OFFSET 0.006600 -0.176220 0.000990 
					}
				}
			}
		}
		JOINT LeftShoulder
		{
			OFFSET 0.019635 0.377685 -0.194865 
			CHANNELS 3 Zrotation Xrotation Yrotation
			JOINT LeftElbow
			{
				OFFSET 0.000000 -0.243375 0.000000 
				CHANNELS 2 Zrotation Yrotation
				JOINT LeftWrist
				{
					OFFSET 0.000000 -0.264825 0.000000 
					CHANNELS 2 Zrotation Xrotation
					End Site
					{
						OFFSET 0.006600 -0.176220 -0.000990 
					}
				}
			}
		}
	}
	JOINT RightHip
	{
		OFFSET 0.052140 -0.069960 0.075570 
		CHANNELS 3 Zrotation Xrotation Yrotation
		JOINT RightKnee
		{
			OFFSET 0.000000 -0.402270 0.000000 
			CHANNELS 1 Zrotation
			JOINT RightAnkle
			{
				OFFSET 0.000000 -0.404085 0.000000 
				CHANNELS 3 Zrotation Xrotation Yrotation
				End Site
				{
					OFFSET 0.204105 -0.089430 0.008415 
				}
			}
		}
	}
	JOINT LeftHip
	{
		OFFSET 0.052140 -0.069960 -0.075570 
		CHANNELS 3 Zrotation Xrotation Yrotation
		JOINT LeftKnee
		{
			OFFSET 0.000000 -0.402270 0.000000 
			CHANNELS 1 Zrotation
			JOINT LeftAnkle
			{
				OFFSET 0.000000 -0.404085 0.000000 
				CHANNELS 3 Zrotation Xrotation Yrotation
				End Site
				{
					OFFSET 0.204105 -0.089430 -0.008415 
				}
			}
		}
	}
}
MOTION
Frames: 14
Frame Time: 0.02
0 0.95578 -0 138.68753 0 -0.38288 0.59123 5.50657 -0.74948 -52.91527 -1.75328 -6.45763 52.62013 -9.85313 6.18478 10.35245 80.54238 -1.70039 -5.44629 48.53131 23.07665 -21.4747 14.21989 -105.21049 -14.89449 9.17802 -5.70305 8.81863 7.06134 -5.87617 -10.27111 -0.35335 -20.92234 4.41244 8.50481 5.08501 -21.37809 -4.64986 3.64346 9.48443
-0.0005 0.95519 0.00063 138.53019 0 -0.6178 0.92112 5.79665 -0.62294 -55.33405 -2.87221 -8.45442 54.74872 -7.54096 5.72214 10.48472 81.17575 -1.89357 -5.68381 51.41463 26.26799 -23.52147 16.16127 -107.79103 -18.7872 8.98811 -5.64123 9.00133 7.36642 -6.01337 -10.23839 -0.39734 -20.97329 3.58529 8.61767 5.92052 -20.2797 -4.8852 3.60616 9.54045
-0.00101 0.9546 0.00128 138.3752 0 -0.85176 1.24924 6.08457 -0.49774 -57.73367 -3.98207 -10.43606 56.85947 -5.24628 5.26317 10.61542 81.80364 -2.08513 -5.91905 54.27917 29.43561 -25.55517 18.09412 -110.35195 -22.65534 8.7999 -5.57979 9.18285 7.668 -6.14985 -10.20558 -0.44152 -21.02288 2.76056 8.72926 6.7562 -19.18132 -5.11958 3.56863 9.59189
-0.00153 0.95401 0.00193 138.22747 0 -1.08462 1.57391 6.36791 -0.37672 -60.08404 -5.06794 -12.37841 58.92325 -2.99768 4.8133 10.74258 82.41602 -2.27295 -6.14885 57.09684 32.54473 -27.5559 20.02024 -112.86186 -26.47767 8.61743 -5.51961 9.36263 7.9643 -6.28431 -10.17185 -0.48499 -21.07221 1.93646 8.83746 7.60347 -18.0705 -5.35213 3.52968 9.6264
-0.00196 0.9534 0.0025 138.04057 0 -1.32384 1.91737 6.67699 -0.23364 -62.69991 -6.28254 -14.53117 61.24026 -0.50333 4.31391 10.89021 83.11084 -2.48161 -6.40907 60.16308 35.97007 -29.73056 21.99225 -115.64491 -30.5603 8.40546 -5.45318 9.55301 8.29543 -6.42892 -10.14266 -0.52992 -21.12849 1.10783 8.96428 8.39266 -17.0234 -5.59402 3.49811 9.75153
-0.0026 0.95284 0.00326 137.93721 0 -1.54898 2.22038 6.93033 -0.13731 -64.74848 -7.22252 -16.2352 63.01636 1.46762 3.92066 10.99325 83.63041 -2.64531 -6.6036 62.70028 38.71888 -31.53563 23.85826 -117.84545 -34.07631 8.25547 -5.39973 9.71984 8.54789 -6.55225 -10.10412 -0.5733 -21.16623 0.29044 9.05114 9.30162 -15.84408 -5.81618 3.45103 9.68425
-0.00381 0.95239 0.00453 138.06547 0 -1.7438 2.41886 7.03968 -0.17241 -65.25499 -7.4116 -16.71392 63.3168 2.00312 3.81382 10.9814 83.66461 -2.69065 -6.62491 63.79298 39.64223 -32.32749 25.5313 -118.45275 -36.1661 8.28467 -5.38463 9.83213 8.62292 -6.61522 -10.03615 -0.59995 -21.18476 -0.52481 9.03 10.59814 -14.24066 -5.98554 3.35764 9.07047
-0.00523 0.95199 0.006 138.27774 0 -1.92318 2.57528 7.09116 -0.25429 -65.18397 -7.32217 -16.73693 63.06724 2.00824 3.81591 10.92325 83.52236 -2.6897 -6.57858 64.34804 39.87503 -32.74466 27.08065 -118.4675 -37.65882 8.37532 -5.38215 9.91893 8.61218 -6.65707 -9.95944 -0.62723 -21.17929 -1.32425 8.96811 12.00639 -12.51308 -6.13468 3.24917 8.26539
-0.00655 0.95159 0.0074 138.45151 0 -2.10413 2.74672 7.16265 -0.31337 -65.36288 -7.35561 -16.96087 63.05905 2.25107 3.77153 10.88056 83.46157 -2.70608 -6.55765 65.14193 40.39791 -33.33076 28.624 -118.74697 -39.33956 8.43228 -5.37225 10.01058 8.61376 -6.70966 -9.88884 -0.66249 -21.16326 -2.11325 8.9233 13.32842 -10.8783 -6.29245 3.14968 7.5558
-0.0079 0.95112 0.00874 138.62786 0 -2.30749 2.93599 7.26026 -0.37913 -65.5981 -7.40499 -17.2136 63.09083 2.51084 3.71162 10.86039 83.3947 -2.73765 -6.55855 65.96603 41.02376 -33.92685 30.43044 -119.05508 -41.3794 8.51224 -5.36949 10.13025 8.72422 -6.75735 -9.80876 -0.66334 -21.23544 -2.97681 8.88446 14.80059 -9.08915 -6.45336 3.04106 6.80666
-0.00924 0.9508 0.01023 138.81725 0 -2.4612 3.07741 7.29024 -0.44189 -65.5744 -7.35451 -17.29454 62.90389 2.60553 3.7134 10.78362 83.29945 -2.72715 -6.49879 66.59047 41.26737 -34.40757 31.65857 -119.15085 -42.5197 8.56055 -5.35484 10.186 8.59207 -6.81033 -9.74695 -0.73539 -21.12117 -3.68096 8.8236 15.98567 -7.59338 -6.60193 2.94808 6.09886
-0.01046 0.95091 0.01209 139.03497 0 -2.47577 3.10286 7.14302 -0.48642 -65.0146 -7.1006 -17.04373 62.28802 2.40702 3.82876 10.55101 83.16085 -2.60717 -6.28074 66.87124 40.65734 -34.7084 31.32909 -118.90952 -41.41159 8.49157 -5.30439 10.06724 7.77088 -6.88204 -9.73242 -1.00878 -20.47092 -3.9523 8.71115 16.35952 -6.92567 -6.73015 2.90034 5.5134
-0.01167 0.95117 0.0141 139.2603 0 -2.44199 3.08031 6.93051 -0.52605 -64.2065 -6.75482 -16.62993 61.46278 2.05437 4.00776 10.26529 83.00077 -2.44735 -6.0055 66.95409 39.68041 -34.89649 30.4203 -118.4566 -39.4055 8.39095 -5.24149 9.88572 6.71507 -6.95994 -9.73742 -1.35253 -19.6378 -4.06322 8.57807 16.43939 -6.55964 -6.84509 2.86919 4.9829
-0.01291 0.95136 0.01605 139.47401 0 -2.43416 3.07614 6.75102 -0.56695 -63.48836 -6.44863 -16.27045 60.70775 1.75104 4.17775 10.01075 82.85655 -2.30881 -5.76106 67.07942 38.84985 -35.10647 29.77081 -118.03078 -37.74774 8.31511 -5.18421 9.73588 5.79415 -7.0358 -9.73717 -1.66137 -18.9075 -4.24521 8.45498 16.64754 -6.06374 -6.96032 2.83149 4.45309
